<?xml version="1.0" standalone="no"?><!DOCTYPE svg PUBLIC "-//W3C//DTD SVG 1.1//EN" "http://www.w3.org/Graphics/SVG/1.1/DTD/svg11.dtd"><svg t="1778383720927" class="icon" viewBox="0 0 1024 1024" version="1.1" xmlns="http://www.w3.org/2000/svg" p-id="99424" xmlns:xlink="http://www.w3.org/1999/xlink" width="200" height="200"><path d="M0 0h1024v1024H0z" fill="#FFFFFF" fill-opacity="0" p-id="99425"></path><path d="M853.323294 247.205647c13.432471 0 24.545882 10.059294 26.172235 23.070118l0.180706 3.312941v474.352941c0 57.012706-82.823529 98.906353-204.679529 118.784l-18.552471 2.831059-19.094588 2.499765-9.758118 1.114353-19.877647 1.957647-20.329411 1.626353-20.781177 1.264941-10.541176 0.512-21.38353 0.752941-10.842353 0.210823-21.865411 0.180706-21.89553-0.180706a1253.496471 1253.496471 0 0 1-10.842353-0.210823l-21.383529-0.752941a1181.214118 1181.214118 0 0 1-10.541177-0.512l-20.781176-1.264941-20.329412-1.626353-19.877647-1.957647a971.143529 971.143529 0 0 1-9.728-1.114353l-19.124706-2.499765-18.55247-2.831059c-118.784-19.395765-200.523294-59.693176-204.498824-114.567529l-0.180706-4.216471V273.558588a26.352941 26.352941 0 0 1 52.495059-3.312941l0.210823 3.312941v474.352941c0 12.137412 29.033412 32.737882 84.148706 49.272471 62.825412 18.853647 148.841412 29.756235 240.880942 29.756235s178.055529-10.902588 240.880941-29.756235c52.585412-15.781647 81.438118-35.237647 83.937882-47.585882l0.180706-1.716706V273.558588c0-14.546824 11.806118-26.352941 26.352941-26.352941z" fill="#333333" p-id="99426"></path><path d="M853.323294 563.440941c14.576941 0 26.352941 11.806118 26.352941 26.352941 0 57.042824-82.853647 98.936471-204.679529 118.814118l-18.552471 2.831059-19.094588 2.499765-9.758118 1.114352-19.877647 1.957648-20.329411 1.626352-20.781177 1.264942a1181.214118 1181.214118 0 0 1-10.541176 0.512l-21.38353 0.752941-10.842353 0.210823-21.865411 0.180706-21.89553-0.180706a1253.496471 1253.496471 0 0 1-10.842353-0.210823l-21.383529-0.752941a1181.214118 1181.214118 0 0 1-10.541177-0.512l-20.781176-1.264942-20.329412-1.626352-19.877647-1.957648a971.143529 971.143529 0 0 1-9.728-1.114352l-19.124706-2.499765-18.55247-2.831059c-121.825882-19.877647-204.679529-61.741176-204.67953-118.814118a26.352941 26.352941 0 0 1 52.495059-3.312941l0.210823 3.312941c0 12.167529 29.033412 32.768 84.148706 49.302589 62.825412 18.853647 148.841412 29.756235 240.880942 29.756235s178.055529-10.902588 240.880941-29.756235c55.085176-16.534588 84.118588-37.135059 84.118588-49.302589 0-14.546824 11.806118-26.352941 26.352941-26.352941z" fill="#333333" p-id="99427"></path><path d="M853.323294 405.323294c14.576941 0 26.352941 11.806118 26.352941 26.352941 0 57.042824-82.853647 98.936471-204.679529 118.814118l-18.552471 2.831059-19.094588 2.499764-9.758118 1.114353-19.877647 1.957647-20.329411 1.626353-20.781177 1.264942a1181.214118 1181.214118 0 0 1-10.541176 0.512l-21.38353 0.752941-10.842353 0.210823-21.865411 0.180706-21.89553-0.180706a1253.496471 1253.496471 0 0 1-10.842353-0.210823l-21.383529-0.752941a1181.214118 1181.214118 0 0 1-10.541177-0.512l-20.781176-1.264942-20.329412-1.626353-19.877647-1.957647a971.143529 971.143529 0 0 1-9.728-1.114353l-19.124706-2.499764-18.55247-2.831059c-121.825882-19.877647-204.679529-61.741176-204.67953-118.814118a26.352941 26.352941 0 0 1 52.495059-3.312941l0.210823 3.312941c0 12.167529 29.033412 32.768 84.148706 49.302589 62.825412 18.853647 148.841412 29.756235 240.880942 29.756235s178.055529-10.902588 240.880941-29.756235c55.085176-16.534588 84.118588-37.135059 84.118588-49.302589 0-14.546824 11.806118-26.352941 26.352941-26.352941zM501.970824 124.235294l-10.992942 0.060235-21.714823 0.361412-10.752 0.301177-21.172706 0.933647-10.450824 0.602353-20.570353 1.445647-20.118588 1.807059c-9.938824 0.963765-19.696941 2.108235-29.214117 3.312941l-18.853647 2.68047a817.091765 817.091765 0 0 0-18.281412 2.981647l-17.679059 3.312942C195.162353 163.448471 124.235294 203.233882 124.235294 256c0 52.766118 70.896941 92.551529 177.935059 113.965176l17.679059 3.312942c5.993412 1.054118 12.077176 2.048 18.281412 3.011764l18.823529 2.620236c9.547294 1.264941 19.305412 2.379294 29.244235 3.343058l20.118588 1.807059 20.570353 1.445647 10.450824 0.602353 21.172706 0.90353c3.553882 0.150588 7.137882 0.240941 10.752 0.331294l21.684706 0.361412 11.023059 0.060235 10.962823-0.060235 21.744941-0.361412 10.721883-0.301177 21.202823-0.933647 10.420706-0.602353 20.570353-1.445647 20.118588-1.807059c9.938824-0.963765 19.696941-2.108235 29.244235-3.312941l18.853648-2.68047c126.795294-19.275294 213.865412-61.801412 213.865411-120.259765 0-58.458353-87.04-100.984471-213.865411-120.259765l-18.853648-2.650353a970.872471 970.872471 0 0 0-29.244235-3.343058l-20.118588-1.807059-20.570353-1.445647-10.420706-0.602353-21.202823-0.90353a1230.908235 1230.908235 0 0 0-10.721883-0.331294l-21.744941-0.361412a1294.486588 1294.486588 0 0 0-10.962823-0.060235z m0 52.705882c92.039529 0 178.055529 10.902588 240.880941 29.756236 55.085176 16.534588 84.118588 37.135059 84.118588 49.302588 0 12.167529-29.033412 32.768-84.118588 49.302588-62.825412 18.853647-148.841412 29.756235-240.880941 29.756236s-178.055529-10.902588-240.880942-29.756236C205.974588 288.768 176.941176 268.167529 176.941176 256c0-12.167529 29.033412-32.768 84.148706-49.302588 62.825412-18.853647 148.841412-29.756235 240.880942-29.756236z" fill="#333333" p-id="99428"></path></svg>