<?xml version="1.0" standalone="no"?><!DOCTYPE svg PUBLIC "-//W3C//DTD SVG 1.1//EN" "http://www.w3.org/Graphics/SVG/1.1/DTD/svg11.dtd"><svg t="1778380529728" class="icon" viewBox="0 0 1024 1024" version="1.1" xmlns="http://www.w3.org/2000/svg" p-id="52052" xmlns:xlink="http://www.w3.org/1999/xlink" width="200" height="200"><path d="M786.823529 180.705882h-527.058823A79.058824 79.058824 0 0 0 180.705882 259.764706v527.058823a79.058824 79.058824 0 0 0 79.058824 79.058824h527.058823a79.058824 79.058824 0 0 0 79.058824-79.058824v-527.058823A79.058824 79.058824 0 0 0 786.823529 180.705882z m-527.058823 52.705883h527.058823c14.546824 0 26.352941 11.806118 26.352942 26.352941v527.058823a26.352941 26.352941 0 0 1-26.352942 26.352942h-527.058823a26.352941 26.352941 0 0 1-26.352941-26.352942v-527.058823c0-14.546824 11.806118-26.352941 26.352941-26.352941z" fill="#000000" p-id="52053"></path><path d="M417.882353 303.676235a114.206118 114.206118 0 1 0 0 228.412236 114.206118 114.206118 0 0 0 0-228.412236z m0 52.705883a61.500235 61.500235 0 1 1 0 123.00047 61.500235 61.500235 0 0 1 0-123.00047zM628.645647 538.834824a26.352941 26.352941 0 0 1 32.527059-2.168471l2.831059 2.258823 193.264941 175.706353a26.352941 26.352941 0 0 1-32.64753 41.200942l-2.831058-2.228706-175.585883-159.653647-157.997176 142.185411a26.352941 26.352941 0 0 1-31.924706 2.56l-2.831059-2.138353-106.977882-91.678117-123.602824 92.762353a26.352941 26.352941 0 0 1-34.544941-2.56l-2.349176-2.710588a26.352941 26.352941 0 0 1 2.56-34.575059l2.710588-2.319059 140.559059-105.411765a26.352941 26.352941 0 0 1 30.027294-1.114353l2.921412 2.168471 105.411764 90.352941 158.479059-142.637176z" fill="#000000" p-id="52054"></path></svg>