<?xml version="1.0" standalone="no"?><!DOCTYPE svg PUBLIC "-//W3C//DTD SVG 1.1//EN" "http://www.w3.org/Graphics/SVG/1.1/DTD/svg11.dtd"><svg t="1778380566390" class="icon" viewBox="0 0 1024 1024" version="1.1" xmlns="http://www.w3.org/2000/svg" p-id="52558" xmlns:xlink="http://www.w3.org/1999/xlink" width="200" height="200"><path d="M0 0h1024v1024H0z" fill="#D8D8D8" fill-opacity="0" p-id="52559"></path><path d="M730.352941 184.470588H273.558588A26.352941 26.352941 0 0 0 247.205647 210.823529v597.323295c0 14.576941 11.806118 26.352941 26.352941 26.352941H730.352941a26.352941 26.352941 0 0 0 26.352941-26.352941V210.823529a26.352941 26.352941 0 0 0-26.352941-26.352941z m-26.352941 52.705883v544.617411H299.911529V237.176471h404.088471z" fill="#000000" p-id="52560"></path><path d="M273.558588 254.735059H150.588235a26.352941 26.352941 0 0 0-26.352941 26.352941V737.882353c0 14.546824 11.806118 26.352941 26.352941 26.352941h122.970353a26.352941 26.352941 0 0 0 26.352941-26.352941V281.088a26.352941 26.352941 0 0 0-26.352941-26.352941z m-26.352941 52.705882v404.088471H176.941176V307.440941h70.264471zM853.323294 254.735059H730.352941a26.352941 26.352941 0 0 0-26.352941 26.352941V737.882353c0 14.546824 11.806118 26.352941 26.352941 26.352941h122.970353a26.352941 26.352941 0 0 0 26.352941-26.352941V281.088a26.352941 26.352941 0 0 0-26.352941-26.352941z m-26.352941 52.705882v404.088471h-70.264471V307.440941h70.264471zM440.470588 439.205647v140.559059a26.352941 26.352941 0 0 0 40.96 21.925647l105.411765-70.264471a26.352941 26.352941 0 0 0 0-43.851294l-105.411765-70.294588a26.352941 26.352941 0 0 0-40.96 21.925647z m52.705883 49.242353l31.533176 21.022118-31.533176 21.022117v-42.044235z" fill="#000000" p-id="52561"></path></svg>